<?xml version="1.0" encoding="utf-8"?>
<!-- Svg Vector Icons : http://www.onlinewebfonts.com/icon -->
<!DOCTYPE svg PUBLIC "-//W3C//DTD SVG 1.1//EN" "http://www.w3.org/Graphics/SVG/1.1/DTD/svg11.dtd">
<svg version="1.1" xmlns="http://www.w3.org/2000/svg" xmlns:xlink="http://www.w3.org/1999/xlink" x="0px" y="0px" viewBox="0 0 256 256" enable-background="new 0 0 256 256" xml:space="preserve">
<metadata> Svg Vector Icons : http://www.onlinewebfonts.com/icon </metadata>
<g><g><g><path fill="#FFF" d="M187.2,47c0-8.1-6.6-14.8-14.8-14.8c-8.1,0-14.8,6.6-14.8,14.8c0,8.2,6.6,14.8,14.8,14.8C180.6,61.7,187.2,55.1,187.2,47z M231.2,204.5V31.2c0-21.5-22.4-21.2-22.4-21.2L82.6,10.1c-23.3,0-20.7,21.7-20.7,21.7V165h14.5V32.4c0-8,6.8-7.6,6.8-7.6h126c7.5,0,7.6,7,7.6,7l-0.1,74.2l-7.7,0c0,0-20.6-11.9-28.5-23.5c0,0-6.7-13.4-32-13.4l-34.5,0c0,0-4,0.2-8.2,7.4c-0.6,0.9-20.5,33.5-20.5,33.5s-4.9,10.7,4.2,10.7c0,0,5.5,0.5,9-5.3l16.1-21.3c0,0,1.4-3.3,7.2-6.6l4.7-0.2c0,0,7-0.2,5.6,3.8c0,0-15.7,21.2-18.5,38.6l0,36.8c0,0-0.4,5-5.6,5.8c-17,0-34.4-0.1-34.4-0.1s-11.6,0.1-11.6,11.5c0,0,0.4,10.7,11.4,10.7l51.7-0.2c8.2,0,6.7-20.8,6.7-20.8s3.8-28.9,8.7-21.5c0,0,24.3,45.5,32.5,60c0,0,3.1,8.2,12.8,8.2c0,0,8.8-2.7,8.8-9.3l-36.7-71.4v-8.2l10.9-25.5c0,0,4.9-6.1,8.2-1.2c0,0,6.8,6.5,24.7,16l14.9,0.1l0.3,76.4c0,8.6-7.2,15.7-7.2,15.7l-10.9,13.8c-7,6.1-12.3,4.7-12.3,4.7l-121.1,0.2c-7.9,0,0.5-7.2,0.5-7.2l10.7-10.6v-11.9h-16c-0.9,1-32.8,38.1-32.8,38.1c-8,6.8,2.5,6.1,2.5,6.1h166.7c3.7,0,10.9-6.4,10.9-6.4l11.9-14.9C233.3,211.3,231.2,204.5,231.2,204.5L231.2,204.5z"/></g></g></g>
</svg>